HIERARCHY
ROOT Hips
{
  OFFSET 5.80788e-005 67.184 3.4734
  CHANNELS 6 Xposition Yposition Zposition Zrotation Xrotation Yrotation
  JOINT Chest
  {
    OFFSET 0 8.7983 -4.7612
    CHANNELS 3 Zrotation Xrotation Yrotation
    JOINT Chest2
    {
      OFFSET 0 8.0291 0.4195
      CHANNELS 3 Zrotation Xrotation Yrotation
      JOINT Chest3
      {
        OFFSET 0 9.9351 -2.2114
        CHANNELS 3 Zrotation Xrotation Yrotation
        JOINT Neck
        {
          OFFSET 0 22.3885 -0.4656
          CHANNELS 3 Zrotation Xrotation Yrotation
          JOINT Head
          {
            OFFSET -0.0001 12.643 3.4389
            CHANNELS 3 Zrotation Xrotation Yrotation
            End Site
            {
              OFFSET 0.0001 17.6655 0.5274
            }
          }
        }
        JOINT LeftCollar
        {
          OFFSET 2.2603 21.606 7.4023
          CHANNELS 3 Zrotation Xrotation Yrotation
          JOINT LeftShoulder
          {
            OFFSET 13.5163 -1.1332 -5.0146
            CHANNELS 3 Zrotation Xrotation Yrotation
            JOINT LeftElbow
            {
              OFFSET -0.0995 -28.05 -0.2431
              CHANNELS 3 Zrotation Xrotation Yrotation
              JOINT LeftWrist
              {
                OFFSET 0.0679 -23.3996 -0.1402
                CHANNELS 3 Zrotation Xrotation Yrotation
                JOINT LeftFinger1
                {
                  OFFSET 0.7932 -9.069 2.5189
                  CHANNELS 3 Zrotation Xrotation Yrotation
                  JOINT LeftFinger11
                  {
                    OFFSET -0.8272 -3.3923 0.5977
                    CHANNELS 3 Zrotation Xrotation Yrotation
                    JOINT LeftFinger12
                    {
                      OFFSET -0.5649 -2.3158 0.4082
                      CHANNELS 3 Zrotation Xrotation Yrotation
                      End Site
                      {
                        OFFSET -0.4919 -1.6479 0.2673
                      }
                    }
                  }
                }
                JOINT LeftFinger2
                {
                  OFFSET 0.9159 -9.2044 0.2193
                  CHANNELS 3 Zrotation Xrotation Yrotation
                  JOINT LeftFinger21
                  {
                    OFFSET 0.0117 -4.1944 -0.0248
                    CHANNELS 3 Zrotation Xrotation Yrotation
                    JOINT LeftFinger22
                    {
                      OFFSET 0.0071 -2.3249 -0.0142
                      CHANNELS 3 Zrotation Xrotation Yrotation
                      End Site
                      {
                        OFFSET -0.1475 -2.0882 0.0028
                      }
                    }
                  }
                }
                JOINT LeftFinger3
                {
                  OFFSET 0.6113 -8.7231 -2.0637
                  CHANNELS 3 Zrotation Xrotation Yrotation
                  JOINT LeftFinger31
                  {
                    OFFSET -0.1927 -3.8059 -0.2383
                    CHANNELS 3 Zrotation Xrotation Yrotation
                    JOINT LeftFinger32
                    {
                      OFFSET -0.1091 -2.1688 -0.1362
                      CHANNELS 3 Zrotation Xrotation Yrotation
                      End Site
                      {
                        OFFSET -0.2358 -1.9176 -0.0906
                      }
                    }
                  }
                }
                JOINT LeftFinger4
                {
                  OFFSET -0.6151 -8.0947 -3.5641
                  CHANNELS 3 Zrotation Xrotation Yrotation
                  JOINT LeftFinger41
                  {
                    OFFSET -0.4882 -2.341 -0.6462
                    CHANNELS 3 Zrotation Xrotation Yrotation
                    JOINT LeftFinger42
                    {
                      OFFSET -0.3575 -1.7167 -0.4742
                      CHANNELS 3 Zrotation Xrotation Yrotation
                      End Site
                      {
                        OFFSET -0.4187 -1.5237 -0.3496
                      }
                    }
                  }
                }
                JOINT LeftFinger0
                {
                  OFFSET -1.42 -1.8761 1.4223
                  CHANNELS 3 Zrotation Xrotation Yrotation
                  JOINT LeftFinger01
                  {
                    OFFSET -1.1471 -3.4929 2.6334
                    CHANNELS 3 Zrotation Xrotation Yrotation
                    JOINT LeftFinger02
                    {
                      OFFSET -0.823 -2.3 1.6571
                      CHANNELS 3 Zrotation Xrotation Yrotation
                      End Site
                      {
                        OFFSET -0.5822 -1.6914 1.1582
                      }
                    }
                  }
                }
              }
            }
          }
        }
        JOINT RightCollar
        {
          OFFSET -2.2603 21.606 7.4023
          CHANNELS 3 Zrotation Xrotation Yrotation
          JOINT RightShoulder
          {
            OFFSET -13.5187 -1.1334 -5.0155
            CHANNELS 3 Zrotation Xrotation Yrotation
            JOINT RightElbow
            {
              OFFSET 0.0994 -28.0499 -0.2431
              CHANNELS 3 Zrotation Xrotation Yrotation
              JOINT RightWrist
              {
                OFFSET -0.0679 -23.3996 -0.1402
                CHANNELS 3 Zrotation Xrotation Yrotation
                JOINT RightFinger1
                {
                  OFFSET -0.7932 -9.0691 2.5189
                  CHANNELS 3 Zrotation Xrotation Yrotation
                  JOINT RightFinger11
                  {
                    OFFSET 0.8272 -3.3923 0.5977
                    CHANNELS 3 Zrotation Xrotation Yrotation
                    JOINT RightFinger12
                    {
                      OFFSET 0.565 -2.3158 0.4082
                      CHANNELS 3 Zrotation Xrotation Yrotation
                      End Site
                      {
                        OFFSET 0.4919 -1.6479 0.2673
                      }
                    }
                  }
                }
                JOINT RightFinger2
                {
                  OFFSET -0.916 -9.2044 0.2193
                  CHANNELS 3 Zrotation Xrotation Yrotation
                  JOINT RightFinger21
                  {
                    OFFSET -0.0117 -4.1944 -0.0248
                    CHANNELS 3 Zrotation Xrotation Yrotation
                    JOINT RightFinger22
                    {
                      OFFSET -0.0071 -2.3249 -0.0142
                      CHANNELS 3 Zrotation Xrotation Yrotation
                      End Site
                      {
                        OFFSET 0.1475 -2.0882 0.0028
                      }
                    }
                  }
                }
                JOINT RightFinger3
                {
                  OFFSET -0.6113 -8.7231 -2.0637
                  CHANNELS 3 Zrotation Xrotation Yrotation
                  JOINT RightFinger31
                  {
                    OFFSET 0.1927 -3.8059 -0.2383
                    CHANNELS 3 Zrotation Xrotation Yrotation
                    JOINT RightFinger32
                    {
                      OFFSET 0.1091 -2.1688 -0.1362
                      CHANNELS 3 Zrotation Xrotation Yrotation
                      End Site
                      {
                        OFFSET 0.2358 -1.9176 -0.0906
                      }
                    }
                  }
                }
                JOINT RightFinger4
                {
                  OFFSET 0.6151 -8.0947 -3.564
                  CHANNELS 3 Zrotation Xrotation Yrotation
                  JOINT RightFinger41
                  {
                    OFFSET 0.4882 -2.341 -0.6462
                    CHANNELS 3 Zrotation Xrotation Yrotation
                    JOINT RightFinger42
                    {
                      OFFSET 0.3574 -1.7166 -0.4742
                      CHANNELS 3 Zrotation Xrotation Yrotation
                      End Site
                      {
                        OFFSET 0.4187 -1.5237 -0.3496
                      }
                    }
                  }
                }
                JOINT RightFinger0
                {
                  OFFSET 1.4199 -1.8761 1.4221
                  CHANNELS 3 Zrotation Xrotation Yrotation
                  JOINT RightFinger01
                  {
                    OFFSET 1.1472 -3.4929 2.6336
                    CHANNELS 3 Zrotation Xrotation Yrotation
                    JOINT RightFinger02
                    {
                      OFFSET 0.8229 -2.3 1.6571
                      CHANNELS 3 Zrotation Xrotation Yrotation
                      End Site
                      {
                        OFFSET 0.5822 -1.6914 1.1582
                      }
                    }
                  }
                }
              }
            }
          }
        }
      }
    }
  }
  JOINT RightHip
  {
    OFFSET -9.412 3.9771 -0.7758
    CHANNELS 3 Zrotation Xrotation Yrotation
    JOINT RightKnee
    {
      OFFSET -0.7531 -40.938 0
      CHANNELS 3 Zrotation Xrotation Yrotation
      JOINT RightAnkle
      {
        OFFSET 0 -40.1986 0
        CHANNELS 3 Zrotation Xrotation Yrotation
        JOINT RightToe
        {
          OFFSET 0 -4.4182 9.239
          CHANNELS 3 Zrotation Xrotation Yrotation
          End Site
          {
            OFFSET 0 0 6.1981
          }
        }
      }
    }
  }
  JOINT LeftHip
  {
    OFFSET 9.4119 3.9773 -0.7758
    CHANNELS 3 Zrotation Xrotation Yrotation
    JOINT LeftKnee
    {
      OFFSET 0.7532 -40.9383 0
      CHANNELS 3 Zrotation Xrotation Yrotation
      JOINT LeftAnkle
      {
        OFFSET 0 -40.1986 0
        CHANNELS 3 Zrotation Xrotation Yrotation
        JOINT LeftToe
        {
          OFFSET 0 -4.4182 9.239
          CHANNELS 3 Zrotation Xrotation Yrotation
          End Site
          {
            OFFSET 0 0 6.1981
          }
        }
      }
    }
  }
}
MOTION
Frames:	4
Frame Time:	0.0333333
-35.8562 7.40676 5.35903 5.64008e-015 60.9968 180 -0.584707 3.98349 -0.044687 -1.17055 7.9672 -0.0486845 -1.17055 7.96725 -0.048684 5.51908e-007 -29.3994 -2.50632e-007 1.05841e-006 -20.0017 -2.73422e-007 -5.71029 19.4736 -40.3494 22.4902 50.6927 40.5664 -28.1949 -77.253 -19.9163 -11.6366 -6.52838 4.28001 -7.95139e-016 1.59028e-015 -3.67752e-015 1.07589e-031 1.59028e-015 -3.8763e-015 -3.97569e-016 -1.59028e-015 2.38542e-015 -7.95139e-016 1.59028e-015 -3.67752e-015 -0.0128019 0.00231685 8.49071e-005 -7.95139e-016 -1.59028e-015 2.28602e-015 -7.95139e-016 1.59028e-015 -3.67752e-015 -0.0161553 0.0030159 0.000865525 3.97569e-016 -1.59028e-015 3.18055e-015 -7.95139e-016 1.59028e-015 -3.67752e-015 -0.0126174 0.00313644 0.00283121 -7.95139e-016 -1.59028e-015 -1.19271e-015 -7.95139e-016 1.59028e-015 -3.67752e-015 1.07589e-031 1.59028e-015 -3.8763e-015 -3.97569e-016 -1.59028e-015 2.38542e-015 3.69844 19.0503 35.5377 -26.4598 49.9214 -33.5914 25.1526 -77.5328 16.1804 11.4898 -6.45547 -4.20783 -1.59028e-015 -3.18055e-015 -7.95139e-016 2.78299e-015 3.18055e-015 -4.96962e-016 -3.97569e-016 1.59028e-015 -6.95746e-016 -1.59028e-015 -3.18055e-015 -7.95139e-016 0.0129296 0.00229934 -8.00746e-005 2.38542e-015 -7.95139e-015 -3.08116e-015 -1.59028e-015 -3.18055e-015 -7.95139e-016 0.0163305 0.00302848 -0.000872118 3.18055e-015 1.59028e-015 -1.09332e-015 -1.59028e-015 -3.18055e-015 -7.95139e-016 0.0145929 0.00367959 -0.00326161 -1.56433e-007 7.82661e-006 -3.17109e-006 -1.59028e-015 -3.18055e-015 -7.95139e-016 2.78299e-015 3.18055e-015 -4.96962e-016 -3.97569e-016 1.59028e-015 -6.95746e-016 -34.0566 -18.5228 -51.1276 -82.2442 48.756 106.678 17.8398 6.97539 -33.8749 -7.30314e-007 4.12149e-007 -7.64601e-006 33.1484 -18.8441 51.3805 84.0139 48.7766 -108.06 -17.0437 6.02172 34.5351 3.77804e-006 -1.97639e-007 -6.4019e-006 
-35.8561 7.40688 5.35887 5.64009e-015 60.9968 180 -0.588228 3.88501 -0.0426235 -1.17763 7.77022 -0.0453176 -1.17763 7.77026 -0.0453178 -5.92735e-006 -28.6423 -9.74253e-007 9.0625e-007 -20.0017 -1.27108e-008 -5.93553 19.6629 -39.9732 22.7331 50.6861 40.3993 -28.1932 -77.2523 -19.9146 -11.9177 -6.31529 4.03091 3.97569e-015 1.59028e-015 -2.82274e-014 3.97569e-015 1.59028e-015 -3.16068e-014 4.77083e-015 1.59028e-015 -2.8128e-014 3.97569e-015 1.59028e-015 -2.82274e-014 -0.0127456 0.00231656 7.84109e-005 -3.97569e-016 -1.59028e-015 8.34896e-015 3.97569e-015 1.59028e-015 -2.82274e-014 -0.0160832 0.0030113 0.000867726 3.97569e-016 0 -2.38542e-015 3.97569e-015 1.59028e-015 -2.82274e-014 -0.0125988 0.00312455 0.0028334 7.95139e-016 -1.27222e-014 -3.37934e-015 3.97569e-015 1.59028e-015 -2.82274e-014 3.97569e-015 1.59028e-015 -3.16068e-014 4.77083e-015 1.59028e-015 -2.8128e-014 3.97617 19.2576 35.1495 -26.7481 49.8879 -33.4015 25.1552 -77.534 16.1829 11.7784 -6.24609 -3.94508 7.95139e-016 1.59028e-015 -4.96962e-015 3.97569e-016 0 -5.36719e-015 -3.97569e-016 3.18055e-015 -5.96354e-015 7.95139e-016 1.59028e-015 -4.96962e-015 0.0129495 0.00231139 -9.01703e-005 -1.98785e-015 4.77083e-015 7.25564e-015 7.95139e-016 1.59028e-015 -4.96962e-015 0.0163264 0.00302589 -0.000870495 -3.97569e-016 -3.18055e-015 1.78906e-015 7.95139e-016 1.59028e-015 -4.96962e-015 0.0145924 0.00368573 -0.00325982 -1.98785e-015 3.18055e-015 6.85807e-015 7.95139e-016 1.59028e-015 -4.96962e-015 3.97569e-016 0 -5.36719e-015 -3.97569e-016 3.18055e-015 -5.96354e-015 -34.8398 -18.4469 -52.5574 -82.4302 48.3992 107.96 17.256 7.26816 -34.289 -2.38542e-015 7.15625e-015 -3.18055e-015 33.9335 -18.7722 52.8539 84.2192 48.3635 -109.495 -16.4806 6.2901 35.1042 -1.28053e-006 -1.52632e-006 2.21498e-006 
-35.8561 7.40698 5.35873 5.6401e-015 60.9968 180 -0.591362 3.79626 -0.0407583 -1.18392 7.59272 -0.0422865 -1.18393 7.59273 -0.0422863 -1.08892e-005 -27.9599 -1.1223e-006 -1.58267e-007 -20.0017 -1.72204e-007 -6.13962 19.8321 -39.6334 22.9521 50.6795 40.2487 -28.1911 -77.2514 -19.9124 -12.1697 -6.12233 3.80775 -1.45776e-006 -3.85735e-006 -6.43731e-006 7.95139e-016 0 5.1684e-015 1.19271e-015 0 8.54774e-015 -1.45776e-006 -3.85735e-006 -6.43731e-006 -0.0127754 0.00230944 8.89202e-005 -1.93108e-032 1.59028e-015 6.95746e-016 -1.45776e-006 -3.85735e-006 -6.43731e-006 -0.0161244 0.003004 0.000861342 -1.59028e-015 -1.59028e-015 1.05356e-014 -1.45776e-006 -3.85735e-006 -6.43731e-006 -0.0125112 0.00310604 0.00280942 3.97569e-016 -3.18055e-015 4.67144e-015 -1.45776e-006 -3.85735e-006 -6.43731e-006 7.95139e-016 0 5.1684e-015 1.19271e-015 0 8.54774e-015 4.22772 19.4425 34.7986 -27.007 49.8575 -33.2311 25.1583 -77.5354 16.186 12.0373 -6.05635 -3.70967 5.1684e-015 1.59028e-015 -1.59028e-015 7.95139e-016 3.18055e-015 2.28602e-015 -1.59028e-015 -1.59028e-015 -4.67144e-015 5.1684e-015 1.59028e-015 -1.59028e-015 0.0129388 0.00230187 -7.64764e-005 -2.38542e-015 -4.77083e-015 -1.59028e-015 5.1684e-015 1.59028e-015 -1.59028e-015 0.0163392 0.00302455 -0.000869108 5.44518e-006 9.23542e-006 2.96184e-006 5.1684e-015 1.59028e-015 -1.59028e-015 0.0145748 0.00367408 -0.00326083 7.95139e-016 1.59028e-015 -1.2921e-015 5.1684e-015 1.59028e-015 -1.59028e-015 7.95139e-016 3.18055e-015 2.28602e-015 -1.59028e-015 -1.59028e-015 -4.67144e-015 -35.544 -18.3624 -53.8459 -82.5852 48.0772 109.107 16.7327 7.53731 -34.659 1.59028e-015 -1.59028e-015 -0 34.6394 -18.6909 54.1818 84.3885 47.9905 -110.778 -15.9766 6.53881 35.6142 -8.18394e-007 -4.11095e-007 -2.30735e-007 
-35.8561 7.40707 5.35861 5.64009e-015 60.9968 180 -0.594473 3.70744 -0.0388842 -1.19017 7.41507 -0.0392489 -1.19017 7.41508 -0.0392489 8.82571e-007 -27.2762 1.25944e-007 1.13781e-006 -20.0017 -3.51967e-007 -6.34499 20 -39.2926 23.1673 50.6753 40.1009 -28.1966 -77.2537 -19.918 -12.421 -5.9283 3.58549 -2.37247e-031 -3.18055e-015 -4.27387e-015 3.97569e-016 1.59028e-015 -4.27387e-015 3.97569e-016 0 -1.09332e-015 -2.37247e-031 -3.18055e-015 -4.27387e-015 -0.012898 0.00231993 8.27148e-005 -3.97569e-016 -1.59028e-015 -1.68967e-015 -2.37247e-031 -3.18055e-015 -4.27387e-015 -0.0161162 0.0030152 0.000858455 -1.59028e-015 1.59028e-015 -1.09332e-015 -2.37247e-031 -3.18055e-015 -4.27387e-015 -0.0125403 0.00310052 0.00280933 -2.20695e-031 3.18055e-015 3.97569e-015 -2.37247e-031 -3.18055e-015 -4.27387e-015 3.97569e-016 1.59028e-015 -4.27387e-015 3.97569e-016 0 -1.09332e-015 4.48082 19.6259 34.4464 -27.2672 49.8248 -33.0598 25.1571 -77.5349 16.1848 12.2953 -5.86549 -3.47512 7.95139e-016 0 -6.95746e-016 -3.97569e-016 -4.77083e-015 -4.27387e-015 2.06902e-031 1.59028e-015 -7.45443e-015 7.95139e-016 0 -6.95746e-016 0.0129479 0.00232592 -9.89653e-005 -1.21382e-031 -3.18055e-015 -2.18663e-015 7.95139e-016 0 -6.95746e-016 0.0163132 0.00303154 -0.00087799 3.97569e-016 0 -4.07509e-015 7.95139e-016 0 -6.95746e-016 0.0145878 0.00367764 -0.00326677 -7.95139e-016 0 -3.97569e-016 7.95139e-016 0 -6.95746e-016 -3.97569e-016 -4.77083e-015 -4.27387e-015 2.06902e-031 1.59028e-015 -7.45443e-015 -36.2471 -18.2623 -55.1347 -82.7274 47.753 110.245 16.2118 7.81122 -35.0265 -7.95139e-016 3.97569e-015 -3.18055e-015 35.3443 -18.5936 55.5101 84.5417 47.6148 -112.051 -15.4757 6.79353 36.1223 1.73996e-006 1.23127e-006 -4.52474e-006 
